<svg width="74" height="41" viewBox="0 0 74 41" fill="none" xmlns="http://www.w3.org/2000/svg">
<path d="M67.4496 0C65.8097 0.00264937 64.2378 0.655977 63.0791 1.81654C61.9204 2.9771 61.2696 4.55004 61.2696 6.19C61.2696 6.75128 61.347 7.30988 61.4996 7.85L43.7996 25.29C43.2326 25.1163 42.6427 25.0287 42.0496 25.03C41.3972 25.0305 40.7491 25.1351 40.1296 25.34L31.6496 17.47C31.7743 16.9865 31.8381 16.4893 31.8396 15.99C31.8413 15.1119 31.6562 14.2435 31.2964 13.4424C30.9367 12.6413 30.4107 11.926 29.7532 11.3439C29.0958 10.7617 28.322 10.3261 27.4833 10.066C26.6446 9.80587 25.7602 9.72717 24.8887 9.83512C24.0172 9.94307 23.1787 10.2352 22.4288 10.6921C21.679 11.149 21.0349 11.7602 20.5393 12.4852C20.0438 13.2102 19.7082 14.0322 19.5548 14.8969C19.4014 15.7615 19.4338 16.6488 19.6496 17.5L8.18965 28.24C7.58021 28.0376 6.94179 27.9363 6.29965 27.94C4.99378 27.9296 3.71747 28.3286 2.64996 29.0808C1.58246 29.833 0.777386 30.9007 0.347816 32.1339C-0.081753 33.3671 -0.11424 34.7039 0.254921 35.9566C0.624081 37.2092 1.37634 38.3148 2.40605 39.1179C3.43576 39.9211 4.69119 40.3816 5.99602 40.4346C7.30084 40.4877 8.58952 40.1307 9.68105 39.4138C10.7726 38.6969 11.6121 37.6561 12.0818 36.4376C12.5515 35.2191 12.6276 33.884 12.2996 32.62L23.7496 21.88C24.3639 22.0767 25.0047 22.1778 25.6496 22.18C26.3053 22.1795 26.9568 22.0749 27.5796 21.87L36.0496 29.74C35.929 30.224 35.8685 30.7211 35.8696 31.22C35.8361 32.0532 35.9713 32.8845 36.267 33.6641C36.5628 34.4437 37.0129 35.1556 37.5906 35.7569C38.1682 36.3582 38.8614 36.8367 39.6285 37.1635C40.3956 37.4903 41.2208 37.6587 42.0546 37.6587C42.8885 37.6587 43.7137 37.4903 44.4808 37.1635C45.2479 36.8367 45.9411 36.3582 46.5187 35.7569C47.0963 35.1556 47.5465 34.4437 47.8423 33.6641C48.138 32.8845 48.2732 32.0532 48.2396 31.22C48.2397 30.6587 48.1623 30.1001 48.0096 29.56L65.7096 12.14C66.2745 12.3081 66.8603 12.3957 67.4496 12.4C69.0913 12.4 70.6658 11.7478 71.8266 10.587C72.9875 9.42614 73.6396 7.85169 73.6396 6.21C73.6396 4.56831 72.9875 2.99386 71.8266 1.83301C70.6658 0.672158 69.0913 0.0200005 67.4496 0.0200005V0Z" fill="#1A3441"/>
</svg>
