<svg width="65" height="54" viewBox="0 0 65 54" fill="none" xmlns="http://www.w3.org/2000/svg">
<path d="M2.99288 28.9546C3.07259 28.945 3.15317 28.945 3.23288 28.9546H20.0329C20.3753 28.9556 20.7099 29.0563 20.9959 29.2446C21.2819 29.4329 21.5067 29.7005 21.6429 30.0146L24.6429 36.8746L31.2029 14.1746C31.3155 13.8112 31.5411 13.4931 31.8468 13.2665C32.1525 13.04 32.5224 12.9167 32.9029 12.9146C33.285 12.9192 33.6551 13.0488 33.9567 13.2836C34.2582 13.5183 34.4746 13.8453 34.5729 14.2146L39.1829 31.3846L41.8829 23.3846C42.001 23.0438 42.2203 22.7472 42.5117 22.5345C42.803 22.3219 43.1523 22.2033 43.5129 22.1946V22.1946C43.867 22.1959 44.2124 22.3046 44.5034 22.5064C44.7944 22.7082 45.0174 22.9935 45.1429 23.3246L47.7229 30.1446H61.3229C62.5947 28.1684 63.5591 26.0104 64.1829 23.7446C66.3129 16.3146 63.3129 2.08462 49.3029 0.664616C35.2929 -0.755384 32.3029 10.1146 32.3029 10.1146C31.4929 3.97462 24.4829 0.954617 24.4829 0.954617C11.6129 -2.79538 5.10288 5.40462 2.25288 9.95462C-0.597119 14.5046 -0.97712 21.7146 2.47288 27.9546C2.61288 28.3646 2.84288 28.6546 2.99288 28.9546Z" fill="#1A3441"/>
<path d="M46.5529 33.6846C46.1971 33.6853 45.8495 33.5775 45.5565 33.3756C45.2635 33.1738 45.039 32.8873 44.9129 32.5546L43.6329 29.1646L40.6329 37.9646C40.5128 38.3211 40.2811 38.6294 39.972 38.8439C39.6629 39.0583 39.293 39.1674 38.917 39.1551C38.541 39.1427 38.179 39.0096 37.8847 38.7753C37.5903 38.5411 37.3793 38.2182 37.2829 37.8546L32.8429 21.1446L26.5929 42.4946C26.4902 42.8392 26.2849 43.1444 26.0045 43.3695C25.724 43.5946 25.3816 43.7289 25.0229 43.7546H24.9129C24.5702 43.7549 24.235 43.6547 23.9488 43.4662C23.6626 43.2778 23.438 43.0095 23.3029 42.6946L18.8429 32.4246H5.65289C10.2029 37.5646 17.0229 42.6646 19.3829 44.4946C22.3829 46.8446 31.8129 53.3246 31.8129 53.3246C34.7229 50.7146 41.1329 47.1446 49.4629 41.2146C52.7366 39.0019 55.7906 36.4804 58.5829 33.6846H46.5529Z" fill="#1A3441"/>
</svg>
