<svg width="222" height="41" viewBox="0 0 222 41" fill="none" xmlns="http://www.w3.org/2000/svg">
<path d="M147.634 21.42L147.474 14.2L147.634 21.42Z" fill="#FCC00D"/>
<path d="M141.234 33.2L141.904 30.62L141.234 33.2Z" fill="white"/>
<path d="M65.7143 11.55C65.5557 11.6851 65.3525 11.7563 65.1443 11.75H55.8543C55.8203 11.745 55.7856 11.7479 55.7529 11.7587C55.7203 11.7695 55.6906 11.7877 55.6663 11.8121C55.642 11.8364 55.6237 11.866 55.613 11.8987C55.6022 11.9313 55.5992 11.966 55.6043 12L55.0043 16.89C54.9343 17.06 55.0043 17.14 55.2043 17.14H60.0443C60.1418 17.1333 60.2396 17.1477 60.3311 17.1822C60.4226 17.2167 60.5055 17.2705 60.5743 17.34C60.6336 17.4172 60.6751 17.5065 60.6959 17.6016C60.7166 17.6967 60.7161 17.7952 60.6943 17.89L59.8943 24.43C59.8814 24.6405 59.7859 24.8374 59.6286 24.9778C59.4713 25.1183 59.2649 25.1909 59.0543 25.18H54.2043C54.1703 25.1749 54.1356 25.1779 54.1029 25.1887C54.0703 25.1995 54.0406 25.2177 54.0163 25.2421C53.992 25.2664 53.9737 25.296 53.963 25.3287C53.9522 25.3613 53.9492 25.396 53.9543 25.43L52.4043 37.91C52.3877 38.1211 52.2911 38.3178 52.1343 38.46C52.0652 38.5262 51.9837 38.578 51.8944 38.6123C51.8051 38.6467 51.7099 38.6629 51.6143 38.66H43.9243C43.8343 38.6656 43.7443 38.6504 43.6611 38.6157C43.5779 38.5811 43.5037 38.5278 43.4443 38.46C43.3823 38.3843 43.3391 38.295 43.3183 38.1994C43.2974 38.1038 43.2995 38.0047 43.3243 37.91L47.4143 4.46001C47.4364 4.24835 47.5361 4.05239 47.6943 3.91001C47.8366 3.78078 48.0221 3.70944 48.2143 3.71001H66.1143C66.2102 3.70409 66.3063 3.71889 66.3961 3.7534C66.4858 3.78791 66.567 3.84132 66.6343 3.91001C66.6953 3.98634 66.7387 4.07528 66.7611 4.17039C66.7836 4.26551 66.7847 4.36443 66.7643 4.46001L65.9643 11C65.946 11.2065 65.8578 11.4005 65.7143 11.55V11.55Z" fill="#FCC00D"/>
<path d="M64.3643 38.46C64.3043 38.3832 64.2624 38.2939 64.2416 38.1987C64.2209 38.1035 64.2217 38.0048 64.2443 37.91L68.3343 4.46001C68.3607 4.24966 68.4597 4.05513 68.6143 3.91001C68.7565 3.78078 68.942 3.70944 69.1343 3.71001H76.8243C76.9139 3.70727 77.0031 3.72369 77.0858 3.75818C77.1686 3.79267 77.2431 3.84443 77.3043 3.91001C77.3618 3.9881 77.4022 4.07745 77.4229 4.17222C77.4436 4.26699 77.444 4.36505 77.4243 4.46001L73.3343 37.91C73.3104 38.1211 73.2109 38.3165 73.0543 38.46C72.9852 38.5262 72.9037 38.578 72.8144 38.6123C72.7251 38.6467 72.6299 38.6629 72.5343 38.66H64.8443C64.7543 38.6656 64.6642 38.6504 64.581 38.6157C64.4978 38.5811 64.4237 38.5278 64.3643 38.46V38.46Z" fill="#FCC00D"/>
<path d="M101.864 3.91003C101.925 3.98636 101.969 4.0753 101.991 4.17041C102.014 4.26553 102.015 4.36445 101.994 4.46003L101.194 11C101.174 11.2059 101.086 11.3992 100.944 11.55C100.87 11.6181 100.784 11.6708 100.689 11.7051C100.595 11.7394 100.495 11.7547 100.394 11.75H94.6043C94.5703 11.745 94.5356 11.7479 94.5029 11.7587C94.4703 11.7695 94.4406 11.7878 94.4163 11.8121C94.392 11.8364 94.3737 11.866 94.363 11.8987C94.3522 11.9313 94.3492 11.966 94.3543 12L91.1143 37.91C91.1002 38.1176 91.0114 38.313 90.8643 38.46C90.7925 38.5311 90.7061 38.5857 90.6112 38.6203C90.5162 38.6548 90.415 38.6684 90.3143 38.66H82.7143C82.6181 38.668 82.5214 38.6542 82.4314 38.6196C82.3413 38.585 82.2603 38.5304 82.1943 38.46C82.1326 38.3841 82.0889 38.2951 82.0664 38.1999C82.0439 38.1047 82.0432 38.0056 82.0643 37.91L85.2643 12C85.2693 11.966 85.2664 11.9313 85.2556 11.8987C85.2448 11.866 85.2265 11.8364 85.2022 11.8121C85.1779 11.7878 85.1483 11.7695 85.1156 11.7587C85.083 11.7479 85.0483 11.745 85.0143 11.75H79.4243C79.3265 11.7641 79.2268 11.7533 79.1342 11.7188C79.0417 11.6843 78.9593 11.6271 78.8946 11.5524C78.8299 11.4778 78.785 11.3881 78.764 11.2916C78.743 11.1951 78.7465 11.0948 78.7743 11L79.5743 4.46003C79.5806 4.3549 79.6077 4.25207 79.6539 4.15742C79.7001 4.06278 79.7646 3.97819 79.8435 3.90851C79.9225 3.83882 80.0145 3.78542 80.1141 3.75136C80.2138 3.7173 80.3192 3.70326 80.4243 3.71003H101.424C101.508 3.71042 101.59 3.72844 101.666 3.76291C101.742 3.79738 101.809 3.84752 101.864 3.91003V3.91003Z" fill="#FCC00D"/>
<path d="M102.764 36.67C101.904 35.8129 101.235 34.7836 100.8 33.6496C100.366 32.5155 100.177 31.3025 100.244 30.09C100.244 29.76 100.244 29.2 100.344 28.4L102.114 13.85C102.345 10.8969 103.712 8.1484 105.927 6.18262C108.143 4.21684 111.035 3.18708 113.994 3.30999C116.512 3.17355 118.983 4.02372 120.884 5.67999C121.75 6.52182 122.426 7.53923 122.865 8.66383C123.305 9.78844 123.499 10.9942 123.434 12.2C123.434 12.5 123.434 13.05 123.334 13.85L123.284 14.1C123.258 14.3141 123.163 14.5141 123.014 14.67C122.945 14.7406 122.863 14.7964 122.772 14.8342C122.681 14.8721 122.583 14.891 122.484 14.89L114.794 15.14C114.294 15.14 114.084 14.91 114.144 14.45L114.294 13.2C114.387 12.7346 114.298 12.2513 114.044 11.85C113.935 11.6878 113.785 11.5566 113.61 11.469C113.435 11.3814 113.24 11.3404 113.044 11.35C112.824 11.3463 112.605 11.3889 112.401 11.475C112.198 11.5611 112.015 11.6888 111.864 11.85C111.53 12.2242 111.329 12.6992 111.294 13.2L109.344 29.2C109.262 29.6425 109.34 30.0999 109.564 30.49C109.673 30.6529 109.823 30.7847 109.998 30.8723C110.173 30.96 110.369 31.0005 110.564 30.99C110.781 30.9968 110.997 30.9585 111.199 30.8776C111.4 30.7967 111.582 30.6749 111.734 30.52C112.072 30.1585 112.276 29.693 112.314 29.2L112.464 27.85C112.481 27.6446 112.578 27.4541 112.734 27.32C112.885 27.2089 113.067 27.1493 113.254 27.15L120.904 27.4C121.002 27.3929 121.1 27.4091 121.191 27.4474C121.281 27.4856 121.361 27.5448 121.424 27.62C121.485 27.702 121.528 27.7965 121.549 27.8967C121.569 27.9969 121.568 28.1004 121.544 28.2L121.494 28.4C121.223 31.3748 119.841 34.1383 117.624 36.14C115.426 38.0914 112.573 39.1444 109.634 39.09C107.115 39.2182 104.647 38.3488 102.764 36.67V36.67Z" fill="#FCC00D"/>
<path d="M138.844 3.91003C138.918 3.842 139.005 3.78929 139.099 3.75496C139.194 3.72063 139.294 3.70536 139.394 3.71003H147.034C147.132 3.69599 147.232 3.70673 147.324 3.74126C147.417 3.77578 147.499 3.83299 147.564 3.90763C147.629 3.98228 147.674 4.07197 147.695 4.16848C147.716 4.26499 147.712 4.36524 147.684 4.46003L143.594 37.91C143.57 38.1212 143.471 38.3165 143.314 38.46C143.158 38.5986 142.953 38.6704 142.744 38.66H135.114C135.017 38.6741 134.917 38.6633 134.824 38.6288C134.732 38.5943 134.649 38.5371 134.585 38.4624C134.52 38.3878 134.475 38.2981 134.454 38.2016C134.433 38.1051 134.437 38.0048 134.464 37.91L136.014 25.43C136.014 25.26 135.944 25.18 135.814 25.18H133.464C133.43 25.175 133.396 25.1779 133.363 25.1887C133.33 25.1995 133.301 25.2178 133.276 25.2421C133.252 25.2664 133.234 25.296 133.223 25.3287C133.212 25.3613 133.209 25.396 133.214 25.43L131.664 37.91C131.648 38.1211 131.551 38.3178 131.394 38.46C131.251 38.5934 131.06 38.6652 130.864 38.66H123.174C123.086 38.6663 122.997 38.6515 122.915 38.6167C122.833 38.582 122.761 38.5282 122.704 38.46C122.643 38.3841 122.599 38.2951 122.576 38.1999C122.554 38.1047 122.553 38.0056 122.574 37.91L126.674 4.46003C126.693 4.2495 126.789 4.05342 126.944 3.91003C127.09 3.78013 127.279 3.70888 127.474 3.71003H135.114C135.203 3.70673 135.29 3.72294 135.372 3.75752C135.453 3.79209 135.525 3.84416 135.584 3.91003C135.645 3.98636 135.689 4.07529 135.711 4.17041C135.734 4.26552 135.735 4.36444 135.714 4.46003L134.214 16.89C134.144 17.06 134.214 17.14 134.414 17.14H136.754C136.787 17.1414 136.821 17.1359 136.852 17.1239C136.883 17.1118 136.911 17.0934 136.934 17.0699C136.958 17.0464 136.976 17.0183 136.988 16.9874C137 16.9564 137.006 16.9232 137.004 16.89L138.554 4.46003C138.586 4.2491 138.688 4.05516 138.844 3.91003V3.91003Z" fill="#FCC00D"/>
<path d="M184.234 38.01L182.784 25.43C182.784 25.3 182.784 25.23 182.644 25.23C182.504 25.23 182.444 25.31 182.444 25.48L180.894 37.91C180.87 38.1211 180.771 38.3165 180.614 38.46C180.545 38.5262 180.464 38.578 180.374 38.6123C180.285 38.6467 180.19 38.6629 180.094 38.66H172.404C172.314 38.6656 172.224 38.6504 172.141 38.6157C172.058 38.5811 171.984 38.5278 171.924 38.46C171.866 38.3822 171.825 38.2929 171.805 38.198C171.784 38.1031 171.784 38.0049 171.804 37.91L175.894 4.46001C175.921 4.24966 176.02 4.05513 176.174 3.91001C176.317 3.78077 176.502 3.70943 176.694 3.71001H187.634C188.809 3.6524 189.983 3.85057 191.074 4.29083C192.166 4.73109 193.148 5.40295 193.954 6.26001C195.561 8.12723 196.392 10.5393 196.274 13C196.302 15.3563 195.734 17.6814 194.624 19.76C193.873 21.1547 192.813 22.3588 191.524 23.28C191.364 23.38 191.314 23.5 191.374 23.63L193.524 37.81V38.01C193.527 38.0996 193.511 38.1888 193.476 38.2716C193.442 38.3544 193.39 38.4288 193.324 38.49C193.186 38.6089 193.007 38.6697 192.824 38.66H184.934C184.845 38.6654 184.756 38.6527 184.672 38.6226C184.588 38.5925 184.511 38.5456 184.445 38.4849C184.38 38.4241 184.327 38.3507 184.291 38.2691C184.255 38.1874 184.235 38.0993 184.234 38.01V38.01ZM184.334 11.75C184.3 11.745 184.266 11.7479 184.233 11.7587C184.2 11.7695 184.171 11.7877 184.146 11.812C184.122 11.8364 184.104 11.866 184.093 11.8987C184.082 11.9313 184.079 11.966 184.084 12L183.334 17.84C183.329 17.874 183.332 17.9087 183.343 17.9414C183.354 17.974 183.372 18.0037 183.396 18.028C183.421 18.0523 183.45 18.0705 183.483 18.0813C183.516 18.0921 183.55 18.0951 183.584 18.09H184.234C184.622 18.09 185.005 17.9996 185.352 17.8261C185.699 17.6525 186.001 17.4005 186.234 17.09C186.822 16.2449 187.111 15.2278 187.054 14.2C187.097 13.5591 186.901 12.925 186.504 12.42C186.315 12.2134 186.082 12.0508 185.823 11.9437C185.564 11.8366 185.284 11.7875 185.004 11.8L184.334 11.75Z" fill="#FCC00D"/>
<path d="M221.514 3.90998C221.576 3.98569 221.619 4.07499 221.64 4.17058C221.661 4.26617 221.659 4.36534 221.634 4.45998L220.844 11C220.817 11.2059 220.726 11.3981 220.584 11.55C220.513 11.6182 220.428 11.6711 220.335 11.7055C220.242 11.7399 220.143 11.755 220.044 11.75H214.244C214.21 11.7449 214.176 11.7479 214.143 11.7587C214.11 11.7694 214.081 11.7877 214.056 11.812C214.032 11.8363 214.014 11.866 214.003 11.8986C213.992 11.9313 213.989 11.966 213.994 12L210.804 37.91C210.78 38.1147 210.692 38.3068 210.554 38.46C210.481 38.5295 210.395 38.5831 210.3 38.6175C210.206 38.6519 210.105 38.6664 210.004 38.66H202.364C202.267 38.6681 202.168 38.6543 202.077 38.6197C201.985 38.5851 201.902 38.5306 201.834 38.46C201.776 38.3822 201.735 38.2929 201.715 38.198C201.694 38.1031 201.694 38.0049 201.714 37.91L204.914 12C204.919 11.966 204.916 11.9313 204.906 11.8986C204.895 11.866 204.877 11.8363 204.852 11.812C204.828 11.7877 204.798 11.7694 204.766 11.7587C204.733 11.7479 204.698 11.7449 204.664 11.75H199.114C199.018 11.7559 198.922 11.7411 198.832 11.7066C198.743 11.6721 198.662 11.6187 198.594 11.55C198.533 11.4737 198.49 11.3847 198.467 11.2896C198.445 11.1945 198.444 11.0956 198.464 11L199.264 4.45998C199.291 4.24963 199.39 4.0551 199.544 3.90998C199.703 3.77494 199.906 3.70366 200.114 3.70998H221.114C221.268 3.72549 221.41 3.79664 221.514 3.90998V3.90998Z" fill="#FCC00D"/>
<path d="M160.314 26.48L160.184 20.47L160.314 26.48Z" fill="#FCC00D"/>
<path d="M154.994 36.29L155.544 34.14L154.994 36.29Z" fill="#FCC00D"/>
<path d="M167.054 4.36C167.055 4.26651 167.036 4.17393 166.998 4.08857C166.96 4.00321 166.904 3.92708 166.833 3.86538C166.763 3.80368 166.68 3.75786 166.591 3.73104C166.501 3.70423 166.407 3.69705 166.314 3.71H157.474C157.271 3.69247 157.069 3.74846 156.903 3.86777C156.738 3.98708 156.621 4.16177 156.574 4.36L145.574 37.86C145.444 38.4 145.624 38.66 146.124 38.66H153.714C153.919 38.6769 154.123 38.6132 154.281 38.4825C154.44 38.3518 154.542 38.1644 154.564 37.96L154.984 36.29L155.514 34.17L159.114 20.47L159.914 17.24C159.911 17.2203 159.913 17.2002 159.918 17.1809C159.923 17.1616 159.932 17.1436 159.944 17.1277C159.956 17.1119 159.971 17.0987 159.988 17.0887C160.005 17.0788 160.024 17.0725 160.044 17.07C160.124 17.07 160.164 17.07 160.164 17.24L160.234 20.47L160.364 26.47L160.524 34.06L160.584 36.65L160.474 34.09C160.481 34.1022 160.485 34.116 160.485 34.13C160.485 34.144 160.481 34.1578 160.474 34.17L160.574 37.96C160.554 38.0517 160.556 38.1471 160.581 38.2378C160.605 38.3285 160.651 38.4119 160.715 38.4808C160.779 38.5496 160.859 38.6019 160.948 38.6332C161.036 38.6644 161.131 38.6736 161.224 38.66H169.064C169.564 38.66 169.814 38.43 169.814 37.96V37.86L167.054 4.36Z" fill="#FCC00D"/>
<path d="M15.4843 16.21C18.2844 16.21 20.5543 13.9401 20.5543 11.14C20.5543 8.33993 18.2844 6.07001 15.4843 6.07001C12.6842 6.07001 10.4143 8.33993 10.4143 11.14C10.4143 13.9401 12.6842 16.21 15.4843 16.21Z" fill="#FCC00D"/>
<path d="M25.5843 0C31.7443 27.47 -0.815727 27.34 5.37427 0C-8.78573 21.45 8.75427 25.88 15.4843 40.94C22.2743 25.85 39.7243 21.38 25.5843 0Z" fill="#FCC00D"/>
</svg>
