<svg width="96" height="48" viewBox="0 0 96 48" fill="none" xmlns="http://www.w3.org/2000/svg">
<path d="M92.5826 39.5403C88.7628 37.0607 82.9124 38.3849 79.2772 33.9579C79.2772 33.9579 77.8572 32.5688 80.967 29.1544C84.0768 25.74 84.2756 20.3133 83.5088 16.1719C83.0117 14.1896 81.7937 12.4201 80.0539 11.1529C78.314 9.88565 76.1554 9.19562 73.931 9.19562C71.7065 9.19562 69.5479 9.88565 67.8081 11.1529C66.0682 12.4201 64.8502 14.1896 64.3531 16.1719C63.5863 20.3522 63.8419 25.7789 66.8949 29.1544C67.9633 30.168 68.6584 31.4617 68.8829 32.8544C70.3629 33.2808 71.7652 33.9065 73.0435 34.7109C78.7234 38.4498 78.482 45.6551 78.269 47.6933H95.4652C95.4652 47.6933 96.4166 42.02 92.5826 39.5403Z" fill="#1A3441"/>
<path d="M22.3781 34.7109C23.6853 33.8892 25.1218 33.2545 26.6381 32.8284C26.8637 31.4436 27.559 30.1585 28.6261 29.1544C31.6791 25.74 31.9347 20.3133 31.1679 16.1719C30.6708 14.1896 29.4528 12.4201 27.7129 11.1529C25.9731 9.88565 23.8145 9.19562 21.59 9.19562C19.3656 9.19562 17.207 9.88565 15.4672 11.1529C13.7273 12.4201 12.5093 14.1896 12.0122 16.1719C11.2454 20.3522 11.501 25.7789 14.554 29.1544C17.607 32.5298 16.258 33.9579 16.258 33.9579C12.637 38.4238 6.77241 37.1256 2.95263 39.5403C-0.867152 41.9551 0.112643 47.6804 0.112643 47.6804H17.1526C16.897 45.6551 16.6272 38.4239 22.3781 34.7109Z" fill="#1A3441"/>
<path d="M70.7715 37.6189C69.4222 36.8013 67.9207 36.2161 66.3411 35.8923C62.2232 34.9056 57.5656 34.594 54.3138 30.6993C54.3138 30.6993 52.6382 28.9726 56.4154 24.7533C60.1926 20.534 60.505 13.835 59.5536 8.65501C58.9467 6.19786 57.4437 4.00252 55.2915 2.42966C53.1394 0.856813 50.4661 0 47.7108 0C44.9556 0 42.2823 0.856813 40.1301 2.42966C37.978 4.00252 36.475 6.19786 35.8681 8.65501C34.9167 13.848 35.2291 20.547 39.0063 24.7533C42.7834 28.9596 41.1079 30.6993 41.1079 30.6993C37.8703 34.594 33.2553 34.8926 29.1657 35.8923C27.5547 36.2086 26.023 36.7987 24.6501 37.6319C19.9215 40.6958 21.0717 47.6933 21.0717 47.6933H74.3357C74.3357 47.6933 75.5001 40.6828 70.7715 37.6189Z" fill="#1A3441"/>
</svg>
