<svg id="Vrstva_1" data-name="Vrstva 1" xmlns="http://www.w3.org/2000/svg" viewBox="0 0 123.24 114.77"><defs><style>.cls-1{fill:#1a3441;}</style></defs><path class="cls-1" d="M81.07,66.64A42.9,42.9,0,0,0,67.26,40.26l-1.73-5.67a12.46,12.46,0,0,0-2.86-4.44H49c-1.23,0-2.71,3.21-2.71,3.21l.24,8.38c2.22,3.45,11.1,3,11.1,3,1.73,0,3-3.21,3-3.21,3.2,9.37,1.72,20,1.72,20l-1.72.74c-.49-4.69-6.91-4.69-6.91-4.69-5.17,0-8.63,5.43-8.63,5.43a18.17,18.17,0,0,0-7.89-3.7l-.86.07,6.52,23.47c15.31,3.89,27.63-4.31,27.63-4.31,1-1.73,6.91-4.19,6.91-4.19C81.56,70.34,81.07,66.64,81.07,66.64Z"/></svg>