<?xml version="1.0" standalone="no"?>
<!DOCTYPE svg PUBLIC "-//W3C//DTD SVG 20010904//EN"
 "http://www.w3.org/TR/2001/REC-SVG-20010904/DTD/svg10.dtd">
<svg version="1.0" xmlns="http://www.w3.org/2000/svg"
 width="260.000000pt" height="260.000000pt" viewBox="0 0 260.000000 260.000000"
 preserveAspectRatio="xMidYMid meet">
<metadata>
Created by potrace 1.11, written by Peter Selinger 2001-2013
</metadata>
<g transform="translate(0.000000,260.000000) scale(0.100000,-0.100000)"
fill="#000000" stroke="none">
<path d="M1910 2499 c0 -5 5 -7 10 -4 6 3 10 8 10 11 0 2 -4 4 -10 4 -5 0 -10
-5 -10 -11z"/>
<path d="M1975 2480 c3 -5 8 -10 11 -10 2 0 4 5 4 10 0 6 -5 10 -11 10 -5 0
-7 -4 -4 -10z"/>
<path d="M608 2466 c3 -5 -2 -7 -10 -3 -12 4 -14 1 -10 -15 4 -16 2 -19 -8
-13 -9 5 -11 4 -6 -4 4 -6 2 -20 -6 -29 -11 -15 -11 -15 3 -5 14 11 16 8 16
-20 0 -17 -2 -27 -4 -20 -3 7 -11 9 -19 6 -12 -4 -12 -8 -2 -22 12 -14 11 -15
-5 -2 -18 14 -18 16 -1 28 20 14 7 18 -15 4 -11 -7 -11 -13 0 -32 11 -22 11
-23 -5 -10 -9 8 -19 11 -23 7 -3 -3 -2 -6 4 -6 6 0 14 -7 17 -16 6 -15 4 -15
-10 -3 -16 13 -16 12 -4 -11 12 -22 11 -23 -1 -13 -12 10 -15 8 -16 -7 -1 -14
3 -17 15 -13 14 6 15 5 2 -9 -8 -8 -24 -13 -35 -11 -16 4 -17 3 -5 -6 13 -9
13 -12 1 -23 -11 -11 -13 -11 -6 1 6 10 4 12 -4 7 -9 -6 -9 -11 1 -24 11 -13
11 -15 -4 -10 -16 7 -19 -7 -5 -29 5 -7 -1 -16 -13 -23 -11 -6 -18 -15 -15
-21 4 -5 1 -10 -4 -10 -26 -3 -30 -4 -36 -10 -3 -4 8 -5 24 -4 17 1 28 -1 25
-6 -3 -5 -10 -6 -16 -3 -8 5 -9 1 -4 -11 5 -14 4 -15 -7 -7 -10 8 -13 7 -14
-6 -1 -9 -4 -30 -7 -47 -4 -19 -3 -25 2 -17 7 11 10 10 15 -3 4 -9 3 -14 -2
-11 -5 3 -14 -7 -19 -23 -6 -16 -19 -34 -30 -40 -20 -10 -20 -21 -21 -248 0
-249 4 -272 41 -252 11 6 22 8 26 5 3 -3 -1 -6 -8 -6 -7 0 -10 -3 -7 -7 4 -3
1 -13 -6 -21 -8 -10 -8 -13 -1 -9 16 10 25 -18 11 -33 -10 -10 -8 -12 6 -7 10
4 16 3 13 -1 -8 -13 29 -63 40 -55 5 5 0 -3 -11 -16 -18 -21 -18 -24 -2 -18
11 4 17 1 17 -9 0 -8 -4 -12 -10 -9 -15 9 -12 -2 6 -20 14 -13 14 -18 2 -32
-9 -12 -9 -15 0 -9 6 4 12 3 12 -3 0 -6 6 -8 14 -5 8 3 23 -3 34 -14 20 -20
20 -20 -2 -31 -21 -11 -21 -11 0 -8 12 3 21 -1 21 -9 0 -7 -3 -11 -7 -9 -3 2
-7 -6 -7 -18 -2 -14 1 -17 6 -9 11 19 43 -20 35 -44 -5 -18 -5 -18 6 -1 11 18
12 18 25 0 10 -14 11 -21 2 -32 -10 -12 -9 -14 6 -8 12 5 16 3 11 -5 -5 -8 -2
-9 9 -5 17 6 42 -24 30 -37 -3 -3 -1 -6 5 -6 7 0 12 -9 12 -21 0 -14 5 -19 13
-16 8 3 19 2 26 -3 10 -5 9 -9 -4 -13 -10 -5 -14 -3 -9 5 4 7 3 8 -5 4 -20
-13 8 -38 33 -30 20 6 20 6 2 -8 -17 -14 -17 -15 -2 -21 9 -4 15 -3 12 1 -2 4
5 9 17 9 12 1 17 -1 11 -5 -6 -4 -14 -16 -17 -27 l-7 -20 16 20 16 20 -4 -20
c-2 -11 -7 -23 -13 -28 -5 -4 2 -5 18 -3 22 4 30 -1 43 -26 9 -17 11 -27 4
-23 -6 4 -15 17 -20 29 -6 14 -9 16 -9 5 -1 -9 8 -24 20 -35 17 -16 22 -16 29
-4 6 8 10 10 10 4 0 -5 -6 -16 -12 -23 -11 -10 -10 -12 2 -11 30 4 36 -1 34
-30 -1 -16 2 -28 7 -25 4 3 6 13 3 23 -5 14 -4 14 4 3 7 -10 7 -21 0 -35 -10
-19 -10 -20 5 -7 14 11 17 11 18 0 1 -8 1 -17 0 -21 0 -5 6 -8 15 -8 8 0 13 4
10 8 -3 5 1 9 9 9 12 0 12 -4 -2 -20 -17 -20 -17 -20 1 -13 17 6 17 5 5 -11
-8 -10 -9 -14 -2 -10 14 9 36 -26 25 -38 -4 -5 -1 -5 5 -1 7 4 13 3 13 -3 0
-5 10 -8 21 -6 12 3 19 2 15 -2 -3 -3 -1 -12 5 -19 7 -8 7 -14 -1 -19 -5 -3
-10 -12 -10 -18 0 -7 4 -6 10 3 5 8 10 11 10 6 0 -5 6 -4 13 2 10 8 13 6 14
-10 1 -12 8 -25 15 -31 10 -7 9 -8 -3 -4 -9 3 -16 -1 -16 -9 0 -7 4 -11 9 -8
4 3 8 0 8 -6 0 -6 4 -9 9 -6 12 8 39 -26 36 -47 -2 -9 1 -15 5 -12 10 6 24
-31 15 -44 -3 -5 -1 -12 4 -15 5 -4 13 -1 17 5 5 8 3 9 -6 4 -9 -5 -11 -4 -6
4 6 9 11 9 22 0 16 -13 19 -23 5 -14 -6 3 -9 -3 -8 -14 1 -15 5 -17 13 -10 9
8 11 5 7 -10 -3 -13 -1 -21 7 -21 10 0 10 -3 0 -16 -8 -8 -9 -14 -4 -13 21 4
28 -2 14 -11 -10 -7 -11 -10 -2 -10 7 0 15 7 18 15 4 8 10 15 15 15 5 0 4 -10
-3 -21 -10 -17 -10 -23 0 -26 6 -3 12 -9 12 -15 0 -6 8 -17 18 -25 9 -8 11
-11 3 -7 -10 5 -12 3 -6 -6 6 -10 11 -9 22 5 7 11 13 13 13 6 0 -7 4 -9 10 -6
6 3 7 -1 3 -10 -5 -13 -7 -14 -14 -3 -5 7 -9 9 -9 3 0 -5 4 -16 8 -23 6 -9 12
-5 21 14 10 22 9 29 -1 35 -11 7 -10 9 1 9 8 0 11 6 7 16 -5 14 -4 15 8 5 11
-9 16 -9 22 0 4 8 3 9 -4 5 -7 -4 -12 -1 -12 8 0 8 6 13 13 11 6 -2 21 8 32
23 13 18 14 23 3 14 -13 -10 -17 -10 -22 3 -3 9 -2 14 3 11 4 -3 18 5 30 18
17 18 19 26 10 31 -8 6 -10 4 -4 -5 6 -9 4 -11 -5 -5 -8 5 -11 4 -6 -3 3 -6 2
-13 -3 -16 -11 -7 -8 9 7 44 6 15 11 19 11 9 1 -9 7 -16 15 -16 8 0 12 6 9 14
-3 7 1 13 8 13 11 0 11 3 -1 11 -12 9 -10 10 8 6 19 -5 21 -3 11 9 -6 7 -16
11 -23 8 -6 -4 -1 4 12 17 19 20 24 22 32 9 8 -13 10 -12 10 3 0 12 4 16 13
11 6 -4 9 -4 5 1 -4 4 -2 15 5 23 9 13 9 14 0 8 -8 -4 -13 -1 -13 9 0 9 4 14
9 10 5 -3 12 -1 16 5 4 6 11 7 17 4 7 -4 8 -2 4 5 -4 6 0 14 8 17 9 3 14 10
11 14 -3 5 3 14 12 20 15 9 14 10 -7 5 -18 -5 -21 -4 -11 3 8 6 11 17 7 28 -7
17 -6 17 13 0 18 -16 19 -16 17 1 -1 13 5 18 24 16 14 -1 19 1 13 3 -16 7 -17
34 -2 34 5 0 7 -6 3 -12 -5 -10 -4 -10 6 -1 15 13 4 36 -13 27 -7 -4 -8 -3 -4
2 9 9 14 11 48 13 11 0 18 5 14 11 -3 5 -13 7 -23 4 -15 -5 -15 -5 1 6 9 6 23
8 30 5 6 -4 3 1 -8 10 -20 17 -20 17 1 11 15 -5 24 -2 28 9 3 9 11 13 17 9 8
-4 9 -3 5 5 -6 9 -11 9 -22 0 -8 -6 -17 -9 -21 -5 -3 3 -1 6 6 6 7 0 9 5 5 12
-4 6 -3 8 4 4 6 -3 14 -1 18 5 4 8 9 7 16 -2 7 -10 8 -8 5 9 -5 19 -2 22 16
17 18 -5 19 -4 7 4 -13 10 -13 12 0 21 14 9 7 14 -13 11 -5 -1 -6 3 -2 9 4 7
12 7 26 0 11 -6 16 -16 13 -22 -4 -7 -3 -8 4 -4 9 5 9 13 2 27 -7 13 -7 19 0
19 5 0 10 -5 10 -11 0 -5 5 -7 11 -4 6 5 4 12 -8 22 -15 12 -16 14 -1 9 9 -2
19 1 22 9 3 10 0 12 -12 8 -13 -4 -12 -2 3 10 11 8 23 13 27 10 8 -4 28 37 23
47 -1 3 6 13 17 23 20 19 25 9 6 -12 -11 -10 -10 -11 5 -6 9 4 17 14 17 22 0
8 4 11 10 8 6 -3 7 1 4 9 -3 9 -11 13 -17 9 -6 -3 -7 -1 -3 6 6 9 11 9 21 1
10 -8 13 -7 11 7 0 9 10 23 24 30 22 11 21 18 -3 14 -5 -1 -6 3 -3 8 3 5 16 7
29 4 17 -4 19 -3 7 6 -13 9 -13 12 -1 23 11 11 13 11 6 -1 -6 -10 -4 -12 4 -7
9 6 9 11 1 21 -8 10 -8 15 1 21 8 4 9 3 5 -4 -4 -7 -2 -12 3 -12 10 0 15 14
12 33 0 4 5 7 13 7 8 0 18 5 22 12 4 6 3 8 -4 4 -6 -4 -10 1 -9 13 1 15 4 17
14 9 11 -9 12 -6 4 13 -7 21 -6 25 9 25 11 0 16 -6 13 -16 -2 -8 2 -4 11 10
13 22 13 26 0 36 -13 10 -13 12 1 18 11 4 14 2 9 -6 -4 -7 -3 -8 4 -4 8 4 8
15 2 31 -7 19 -6 23 4 19 8 -3 17 0 22 7 4 8 3 10 -4 5 -7 -4 -12 -2 -12 5 0
6 8 9 20 6 11 -3 25 2 32 11 9 11 9 14 1 9 -19 -12 -36 28 -18 43 8 7 12 17 8
23 -3 5 -2 7 3 4 6 -3 15 3 22 14 7 11 8 19 2 19 -5 0 -10 -4 -10 -10 0 -5 -4
-10 -9 -10 -12 0 -7 46 7 63 9 10 8 17 -1 27 -10 12 -9 12 5 1 10 -7 16 -17
13 -21 -3 -5 0 -12 6 -16 7 -4 9 -3 6 3 -4 6 0 16 8 23 7 6 11 19 8 27 -5 12
-3 14 8 8 8 -5 5 2 -6 14 -18 21 -18 24 -4 35 14 9 14 13 3 24 -18 16 -6 45
15 37 10 -4 8 1 -7 15 -24 23 -28 35 -12 45 5 3 7 0 4 -8 -3 -8 -1 -17 3 -20
5 -3 9 9 9 26 -1 18 -7 35 -16 39 -10 4 -7 7 10 7 19 1 22 3 10 10 -8 6 -17 8
-21 5 -4 -2 -5 13 -3 33 2 20 9 40 16 45 10 6 10 8 -1 8 -11 0 -11 3 0 18 13
15 12 16 -3 3 -22 -17 -23 -3 -2 27 8 12 11 22 5 22 -5 0 -11 -4 -13 -9 -1 -5
-12 -3 -23 6 -15 11 -16 14 -3 10 16 -6 35 20 23 31 -3 3 -5 0 -5 -6 0 -7 -5
-12 -11 -12 -5 0 -7 5 -4 10 6 9 -7 14 -27 11 -4 0 -2 10 4 24 6 14 16 25 21
25 6 0 7 3 4 6 -4 4 -13 1 -22 -6 -15 -12 -22 0 -8 14 11 11 11 46 0 39 -6 -4
-8 0 -4 10 3 9 1 19 -5 23 -6 4 -8 3 -4 -4 3 -6 1 -14 -5 -18 -8 -4 -9 -3 -5
4 4 7 1 12 -6 12 -10 0 -10 2 1 9 8 5 21 7 29 3 11 -4 13 -1 8 7 -5 7 -16 11
-25 8 -10 -2 -26 2 -36 9 -10 8 -13 14 -7 14 20 0 27 -5 24 -15 -2 -5 0 -6 4
-2 16 15 11 33 -9 34 -11 1 -25 7 -31 13 -8 8 -7 11 3 8 7 -2 15 7 17 20 2 12
-1 22 -7 22 -5 0 -7 -4 -4 -10 3 -5 2 -10 -3 -10 -6 0 -13 7 -16 16 -3 8 -2
13 2 10 4 -2 13 7 19 21 10 21 10 23 -3 13 -13 -11 -18 -7 -15 12 0 4 -7 4
-16 1 -13 -5 -15 -1 -11 20 5 24 3 25 -10 15 -13 -11 -15 -10 -9 4 3 10 2 20
-4 24 -5 3 -7 14 -4 25 4 11 2 19 -5 19 -6 0 -8 5 -5 10 3 6 1 10 -4 10 -6 0
-11 -4 -11 -10 0 -5 -4 -10 -9 -10 -5 0 -7 9 -4 20 3 12 0 20 -7 20 -9 0 -9 4
1 17 12 14 12 16 0 8 -11 -6 -13 -3 -9 13 4 14 2 22 -7 22 -7 0 -16 6 -19 13
-3 9 -8 7 -19 -5 -7 -10 -18 -14 -23 -10 -5 4 -4 1 2 -7 14 -16 38 -5 27 12
-4 7 0 6 10 -2 18 -14 24 -26 8 -17 -5 3 -14 -1 -21 -9 -7 -8 -17 -12 -24 -8
-6 4 -3 -6 8 -21 10 -16 13 -25 6 -21 -9 6 -11 -3 -7 -33 2 -25 0 -43 -7 -46
-6 -2 -3 -5 7 -5 9 -1 17 -6 17 -12 0 -5 5 -7 12 -3 7 4 8 3 4 -5 -6 -8 -12
-9 -20 -2 -9 8 -13 7 -13 -4 0 -8 4 -15 8 -15 5 0 6 -7 3 -15 -4 -8 -11 -12
-17 -8 -6 4 -7 1 -2 -7 6 -10 12 -8 26 9 17 20 18 21 16 2 0 -11 -5 -17 -9
-15 -4 3 -8 -2 -8 -10 0 -9 5 -16 10 -16 6 0 10 -5 10 -12 0 -7 -7 -5 -18 5
-16 15 -18 15 -18 -3 0 -10 3 -17 6 -15 3 2 10 -8 17 -21 6 -13 7 -22 2 -18
-5 3 -9 1 -9 -5 0 -5 6 -12 13 -14 9 -4 9 -6 0 -6 -7 -1 -13 -6 -13 -12 0 -5
5 -7 12 -3 6 4 3 -4 -8 -18 -10 -14 -23 -23 -28 -20 -5 3 -6 0 -2 -6 4 -7 15
-12 24 -13 14 0 13 -2 -3 -9 -11 -5 -14 -9 -7 -9 7 -1 10 -6 7 -11 -4 -6 -11
-7 -17 -4 -6 4 -6 -2 1 -15 11 -20 8 -25 -12 -22 -5 1 -6 -3 -2 -8 3 -6 11 -8
19 -5 7 3 13 -2 13 -10 0 -8 -6 -12 -14 -9 -10 4 -11 0 -5 -18 5 -13 8 -31 6
-39 -1 -8 -5 -25 -8 -37 -3 -14 0 -23 7 -23 7 0 4 -5 -6 -11 -24 -14 -34 -4
-17 16 8 10 9 15 1 15 -6 0 -13 -11 -17 -25 -3 -14 -10 -23 -14 -20 -5 3 -7
-3 -5 -12 1 -10 -1 -23 -6 -29 -5 -5 -2 -22 6 -37 8 -15 10 -25 5 -22 -6 4
-10 -1 -10 -9 0 -9 -5 -16 -10 -16 -7 0 -7 7 0 23 11 21 10 21 -4 3 -12 -14
-13 -23 -5 -33 11 -12 5 -17 -13 -14 -5 0 -8 -4 -8 -9 0 -6 -5 -10 -11 -10 -5
0 -7 5 -3 12 4 7 3 8 -5 4 -9 -6 -9 -11 0 -22 9 -11 9 -14 0 -14 -7 0 -9 -5
-6 -10 4 -6 11 -7 17 -4 7 4 8 2 4 -4 -5 -9 -13 -9 -29 -1 -18 9 -20 9 -10 -2
9 -9 10 -16 2 -26 -7 -7 -8 -13 -3 -13 5 0 -2 -7 -14 -16 -12 -8 -28 -12 -35
-8 -8 6 -8 3 1 -9 12 -14 10 -20 -13 -41 -22 -21 -31 -23 -47 -15 -18 10 -19
9 -7 -13 11 -21 11 -22 -4 -9 -18 14 -20 10 -18 -24 2 -15 0 -17 -7 -6 -11 16
-32 6 -32 -15 0 -8 -5 -14 -11 -14 -5 0 -8 4 -4 9 3 5 1 13 -5 16 -6 4 -9 1
-8 -6 2 -6 -3 -14 -11 -17 -8 -3 -11 0 -7 7 5 7 1 8 -10 4 -11 -4 -13 -8 -6
-11 7 -2 12 -8 12 -13 0 -6 -4 -7 -10 -4 -5 3 -10 -2 -10 -12 0 -10 -4 -14 -8
-8 -12 16 -32 16 -38 0 -5 -11 -10 -13 -18 -5 -9 7 -19 5 -32 -6 -10 -8 -13
-12 -5 -8 9 5 12 3 7 -5 -10 -16 -29 -3 -22 16 4 8 1 11 -5 7 -6 -3 -9 -14 -6
-23 2 -11 -1 -18 -10 -18 -8 0 -12 6 -9 12 2 6 -2 12 -10 12 -8 0 -13 -6 -10
-13 3 -8 0 -16 -6 -20 -7 -4 -8 -3 -4 4 4 7 2 12 -4 12 -6 0 -9 4 -5 9 3 5 0
13 -6 17 -7 4 -9 3 -5 -4 10 -17 -18 -20 -32 -3 -11 14 -11 14 -5 -3 4 -12 3
-17 -4 -13 -6 4 -23 -3 -39 -15 -15 -13 -25 -17 -20 -10 9 15 -6 16 -22 0 -8
-8 -12 -8 -12 -1 0 14 28 25 43 16 7 -3 8 -2 4 2 -4 5 3 14 15 21 23 12 23 12
-4 11 -14 -1 -24 -5 -22 -9 8 -13 -58 -20 -69 -8 -9 10 -9 11 1 6 18 -10 15
-1 -5 15 -9 8 -14 9 -11 4 4 -6 -1 -19 -9 -30 -15 -19 -15 -19 -8 5 7 23 7 24
-10 10 -11 -8 -16 -10 -12 -4 4 7 -3 14 -18 16 -15 3 -22 1 -18 -5 4 -6 1 -7
-7 -2 -7 4 -16 2 -21 -6 -7 -10 -8 -7 -7 10 2 16 -3 25 -15 26 -9 2 -15 -1
-11 -6 3 -5 11 -6 17 -3 7 4 8 3 4 -1 -13 -15 -35 -14 -33 1 1 7 5 17 9 20 10
11 8 24 -4 24 -5 0 -8 -4 -5 -9 3 -5 -1 -11 -9 -14 -9 -4 -12 -1 -8 9 3 8 2
14 -3 13 -35 -6 -52 2 -50 24 3 20 -1 23 -22 19 -21 -4 -24 -2 -19 12 4 9 3
14 -2 11 -5 -3 -13 5 -17 17 l-6 21 -14 -24 c-13 -23 -19 -15 -15 20 2 7 -2
10 -8 6 -6 -3 -11 -1 -11 5 0 6 -4 9 -9 6 -5 -3 -8 8 -7 25 1 16 -2 33 -7 36
-6 3 -7 1 -3 -5 4 -7 2 -12 -5 -12 -6 0 -9 8 -6 20 3 11 1 17 -4 14 -5 -3 -16
2 -25 10 -12 12 -12 16 -2 16 8 0 6 5 -5 11 -12 7 -16 17 -12 32 5 20 5 20 -8
-2 -12 -20 -15 -21 -20 -7 -4 10 -3 15 3 11 6 -3 10 -1 10 4 0 6 -5 11 -11 11
-8 0 -10 14 -6 43 5 41 5 41 -9 17 -9 -14 -13 -17 -10 -8 3 10 -4 22 -20 32
-13 9 -24 22 -23 29 0 9 2 9 5 0 3 -7 13 -9 22 -6 13 4 14 3 4 -5 -11 -7 -11
-10 3 -15 9 -4 14 -3 10 2 -3 5 1 11 7 13 7 3 -4 13 -24 22 -46 22 -47 26 -8
21 17 -2 28 0 24 6 -3 5 -9 7 -13 4 -11 -6 -53 30 -44 38 3 4 11 -1 18 -9 11
-15 12 -15 12 0 0 9 -4 16 -9 16 -5 0 -8 8 -7 18 3 33 -1 43 -14 36 -7 -5 -6
0 3 11 17 20 17 25 1 35 -6 3 -13 16 -16 29 -2 12 0 19 6 16 5 -4 7 -10 4 -15
-3 -5 -2 -11 3 -14 4 -2 8 6 8 20 0 13 -5 24 -10 24 -6 0 -12 19 -13 43 -5 76
-7 87 -17 87 -6 0 -5 4 2 9 8 4 13 11 13 15 -3 22 0 36 9 36 5 0 7 -7 4 -15
-4 -8 -2 -15 3 -15 5 0 9 23 9 50 0 28 -4 50 -8 50 -5 0 -6 -13 -3 -30 3 -19
1 -30 -7 -30 -6 0 -8 3 -5 7 4 3 -1 12 -11 20 -13 10 -14 12 -1 8 13 -5 15 2
14 34 -1 35 1 39 17 30 14 -7 16 -6 12 6 -4 8 -10 15 -15 15 -5 0 -9 5 -9 11
0 5 5 7 10 4 6 -3 10 1 10 9 0 9 -6 16 -12 16 -7 1 -2 7 12 16 23 14 24 14 2
9 -12 -4 -22 -3 -21 2 4 25 -2 35 -18 28 -13 -4 -15 -3 -7 5 13 13 46 2 37
-13 -4 -6 -1 -7 7 -2 10 6 9 11 -4 21 -13 9 -14 13 -4 17 7 2 1 4 -14 3 -14 0
-24 -5 -20 -10z m2 -46 c0 -5 -2 -10 -4 -10 -3 0 -8 5 -11 10 -3 6 -1 10 4 10
6 0 11 -4 11 -10z m1417 -95 c0 -8 -4 -12 -9 -9 -5 3 -6 10 -3 15 9 13 12 11
12 -6z m-70 -17 c-3 -8 -6 -5 -6 6 -1 11 2 17 5 13 3 -3 4 -12 1 -19z m138
-88 c3 -6 -1 -7 -9 -4 -18 7 -21 14 -7 14 6 0 13 -4 16 -10z m-1621 -98 c3 -5
-1 -9 -9 -9 -8 0 -15 4 -15 9 0 4 4 8 9 8 6 0 12 -4 15 -8z m-63 -95 c-10 -9
-11 -8 -5 6 3 10 9 15 12 12 3 -3 0 -11 -7 -18z m-10 -100 c-6 -8 -8 -17 -4
-21 4 -4 -1 -4 -11 0 -13 5 -17 4 -12 -4 5 -8 2 -10 -9 -6 -13 5 -11 10 12 25
35 22 39 23 24 6z m249 -23 c0 -8 -19 -13 -24 -6 -3 5 1 9 9 9 8 0 15 -2 15
-3z m-281 -32 c7 -13 6 -19 -2 -19 -7 0 -13 9 -13 19 0 10 1 18 3 18 1 0 7 -8
12 -18z m1851 -12 c0 -5 -2 -10 -4 -10 -3 0 -8 5 -11 10 -3 6 -1 10 4 10 6 0
11 -4 11 -10z m-290 -96 c0 -2 -11 -3 -24 -2 -14 1 -23 5 -20 9 4 7 44 0 44
-7z m-36 -22 c3 -5 -1 -9 -9 -9 -8 0 -12 4 -9 9 3 4 7 8 9 8 2 0 6 -4 9 -8z
m331 -230 c-3 -3 -11 0 -18 7 -9 10 -8 11 6 5 10 -3 15 -9 12 -12z m-1861 -27
c1 -9 9 -20 16 -25 12 -7 12 -11 0 -25 -10 -12 -16 -13 -24 -4 -8 8 -8 13 2
16 6 3 9 10 5 16 -9 15 -16 53 -7 45 3 -3 7 -14 8 -23z m26 15 c0 -5 -2 -10
-4 -10 -3 0 -8 5 -11 10 -3 6 -1 10 4 10 6 0 11 -4 11 -10z m1833 -23 c-3 -4
-6 -7 -7 -5 -1 2 -8 12 -16 22 -14 18 -14 18 7 6 12 -8 19 -18 16 -23z m-1333
-42 c0 -5 -5 -3 -10 5 -5 8 -10 20 -10 25 0 6 5 3 10 -5 5 -8 10 -19 10 -25z
m625 -104 c3 -5 2 -12 -3 -15 -5 -3 -9 1 -9 9 0 17 3 19 12 6z m-165 -50 c0
-9 -3 -12 -8 -6 -11 15 -32 17 -32 3 0 -9 -4 -8 -10 2 -7 11 -10 11 -10 2 0
-7 -5 -10 -11 -6 -16 9 3 19 40 20 23 1 31 -3 31 -15z m-853 -97 c-3 -3 -12
-4 -19 -1 -8 3 -5 6 6 6 11 1 17 -2 13 -5z m89 -132 c-4 -3 -14 2 -24 12 -16
18 -16 18 6 6 13 -6 21 -14 18 -18z m424 -518 c0 -8 -19 -13 -24 -6 -3 5 1 9
9 9 8 0 15 -2 15 -3z m524 -86 c-3 -4 -11 -8 -17 -7 -9 0 -9 2 0 5 7 3 9 13 6
22 -4 14 -3 14 5 2 6 -8 8 -18 6 -22z m-40 -59 c-3 -5 -10 -7 -15 -3 -5 3 -7
10 -3 15 3 5 10 7 15 3 5 -3 7 -10 3 -15z"/>
<path d="M2050 2320 c0 -5 5 -10 11 -10 5 0 7 5 4 10 -3 6 -8 10 -11 10 -2 0
-4 -4 -4 -10z"/>
<path d="M1230 2200 c-9 -6 -10 -10 -3 -10 6 0 15 5 18 10 8 12 4 12 -15 0z"/>
<path d="M624 2155 c0 -24 4 -31 14 -27 11 4 11 6 0 13 -10 7 -10 9 2 9 12 0
13 2 1 9 -11 7 -11 9 0 13 10 3 10 6 -2 10 -11 4 -15 -2 -15 -27z"/>
<path d="M1189 2169 c-1 -13 -1 -28 0 -32 1 -5 -3 -6 -8 -3 -5 4 -16 0 -24 -8
-8 -8 -18 -12 -21 -9 -13 14 -38 11 -32 -2 3 -10 0 -12 -11 -8 -11 4 -14 2 -9
-5 5 -8 0 -12 -14 -12 -12 0 -18 -5 -15 -10 4 -6 11 -8 16 -5 5 3 6 -1 3 -9
-3 -9 -10 -16 -16 -16 -5 0 -6 5 -3 10 3 6 2 10 -4 10 -10 0 -27 -39 -23 -53
1 -5 -2 -6 -7 -3 -10 7 -23 -18 -27 -54 -3 -22 -2 -22 5 -5 5 11 6 24 3 29 -3
5 0 6 6 2 11 -7 7 -31 -9 -52 -5 -6 -6 -14 -2 -17 3 -4 1 -7 -6 -7 -8 0 -11 7
-7 15 3 8 1 15 -4 15 -6 0 -10 -9 -10 -21 0 -11 -4 -18 -8 -15 -5 3 -9 -1 -9
-9 0 -10 4 -12 12 -5 9 8 14 6 19 -5 3 -9 2 -14 -3 -11 -5 3 -11 -5 -13 -19
-3 -13 -2 -22 3 -20 4 3 10 1 14 -5 4 -6 10 -8 14 -6 4 3 7 -6 7 -19 0 -19 -3
-22 -13 -13 -7 5 -10 14 -7 19 3 5 1 9 -4 9 -6 0 -13 -7 -16 -16 -3 -8 -2 -12
3 -9 6 3 13 -1 18 -8 4 -8 17 -19 28 -25 11 -6 14 -12 8 -12 -7 0 -13 -9 -13
-21 0 -13 4 -18 12 -13 6 4 8 3 5 -4 -4 -5 -4 -17 -1 -26 5 -12 10 -14 19 -6
10 8 15 6 20 -9 3 -12 3 -26 -1 -33 -5 -8 0 -7 11 2 11 9 16 10 11 3 -7 -13 4
-17 33 -13 12 1 13 -1 2 -13 -9 -12 -9 -17 0 -23 8 -4 9 -3 5 4 -4 7 -3 12 3
12 5 0 12 -8 15 -18 5 -15 16 -19 64 -18 31 1 64 5 72 10 12 7 13 6 3 -5 -13
-13 -19 -38 -6 -26 3 4 13 1 22 -6 14 -11 15 -10 1 7 -13 17 -13 19 0 14 8 -3
23 -1 32 3 11 6 22 4 31 -6 13 -12 16 -12 20 6 5 18 11 20 39 14 32 -7 32 -6
13 9 -19 16 -19 16 6 7 20 -7 26 -6 26 5 0 8 -6 13 -13 10 -8 -3 -16 0 -20 6
-4 7 -3 8 4 4 6 -4 20 2 31 13 14 14 21 16 25 8 5 -9 7 -9 12 1 3 6 10 10 14
7 5 -3 12 0 16 6 4 7 3 9 -4 5 -6 -3 -13 -2 -17 4 -3 5 -1 10 5 10 6 0 8 5 4
11 -4 7 1 7 16 -1 15 -8 20 -8 16 -1 -4 6 0 11 11 11 15 0 15 2 3 9 -8 6 -18
7 -24 4 -5 -4 -6 -1 -2 6 5 7 15 10 23 7 8 -3 12 -2 8 3 -3 5 -2 11 2 14 5 2
2 2 -6 0 -9 -2 -11 2 -7 13 3 8 6 18 6 20 0 2 5 4 11 4 5 0 7 -5 3 -12 -4 -7
-3 -8 4 -4 9 5 7 15 -5 34 -9 15 -13 24 -9 20 12 -10 48 11 41 23 -4 5 -12 9
-18 9 -7 0 -6 -4 3 -10 12 -7 11 -9 -6 -8 -20 2 -22 10 -15 51 0 4 8 7 16 7 8
0 15 5 15 11 0 5 -6 7 -12 3 -8 -5 -8 -2 1 10 8 9 10 16 5 15 -21 -4 -34 2
-32 14 2 6 -3 11 -11 9 -12 -3 -12 0 -2 12 7 8 9 21 5 28 -6 9 -3 9 9 -1 15
-12 17 -12 11 3 -3 9 -14 16 -23 16 -14 0 -14 2 -1 10 13 8 12 10 -2 10 -10 0
-18 5 -18 11 0 5 4 7 10 4 6 -3 7 1 4 10 -5 11 -10 13 -19 5 -11 -9 -13 -6
-11 14 2 16 -1 23 -10 19 -7 -2 -10 -11 -7 -19 3 -8 1 -14 -5 -14 -12 0 -11
18 2 39 7 11 4 13 -12 9 -13 -4 -23 0 -26 8 -3 8 -10 14 -16 14 -6 0 -8 -5 -4
-12 4 -7 3 -8 -5 -4 -9 6 -9 11 0 22 14 17 -2 19 -20 2 -11 -10 -13 -10 -7 0
4 7 2 12 -5 12 -8 0 -5 6 5 13 16 12 13 13 -20 9 -22 -3 -43 -10 -47 -16 -6
-7 -7 -5 -4 5 7 22 -35 31 -67 14 -22 -12 -24 -11 -19 3 5 13 3 14 -7 5 -7 -6
-19 -9 -28 -6 -11 5 -13 2 -8 -8 4 -8 0 -5 -8 5 -16 19 -16 19 -17 -5z m-185
-317 c3 -5 -1 -9 -9 -9 -8 0 -12 4 -9 9 3 4 7 8 9 8 2 0 6 -4 9 -8z m164 -257
c-3 -3 -9 2 -12 12 -6 14 -5 15 5 6 7 -7 10 -15 7 -18z"/>
<path d="M1150 2151 c-8 -6 -18 -7 -24 -4 -5 3 -6 1 -2 -5 9 -16 18 -15 42 3
21 16 8 20 -16 6z"/>
<path d="M1930 2140 c0 -5 5 -10 11 -10 5 0 7 5 4 10 -3 6 -8 10 -11 10 -2 0
-4 -4 -4 -10z"/>
<path d="M1069 2123 c-13 -16 -12 -17 4 -4 9 7 17 15 17 17 0 8 -8 3 -21 -13z"/>
<path d="M1926 2111 c-4 -5 -2 -12 3 -15 5 -4 12 -2 15 3 4 5 2 12 -3 15 -5 4
-12 2 -15 -3z"/>
<path d="M635 2080 c3 -5 8 -10 11 -10 2 0 4 5 4 10 0 6 -5 10 -11 10 -5 0 -7
-4 -4 -10z"/>
<path d="M1011 2047 c-13 -21 -12 -21 5 -5 10 10 16 20 13 22 -3 3 -11 -5 -18
-17z"/>
<path d="M370 1980 c0 -5 5 -10 11 -10 5 0 7 5 4 10 -3 6 -8 10 -11 10 -2 0
-4 -4 -4 -10z"/>
<path d="M1580 1955 c7 -8 17 -15 22 -15 5 0 3 7 -6 15 -8 8 -18 15 -22 15 -3
0 -1 -7 6 -15z"/>
<path d="M365 1950 c-4 -6 -11 -7 -17 -4 -7 4 -8 2 -4 -5 6 -9 11 -9 22 0 14
11 18 19 10 19 -3 0 -8 -5 -11 -10z"/>
<path d="M1587 1873 c-12 -12 -7 -22 8 -17 8 4 15 10 15 15 0 11 -14 12 -23 2z"/>
<path d="M1590 1806 c0 -2 7 -7 16 -10 8 -3 12 -2 9 4 -6 10 -25 14 -25 6z"/>
<path d="M2239 1788 c-5 -18 -6 -38 -1 -34 7 8 12 36 6 36 -2 0 -4 -1 -5 -2z"/>
<path d="M1475 1631 c-3 -5 -1 -12 5 -16 5 -3 10 1 10 9 0 18 -6 21 -15 7z"/>
<path d="M1395 1570 c3 -5 8 -10 11 -10 2 0 4 5 4 10 0 6 -5 10 -11 10 -5 0
-7 -4 -4 -10z"/>
<path d="M1195 1559 c-3 -4 2 -6 10 -5 21 3 28 13 10 13 -9 0 -18 -4 -20 -8z"/>
<path d="M1761 1549 c-7 -12 -10 -23 -8 -26 3 -3 11 5 17 17 6 12 10 23 8 25
-2 2 -10 -5 -17 -16z"/>
<path d="M820 1526 c0 -2 7 -6 15 -10 8 -3 15 -1 15 4 0 6 -7 10 -15 10 -8 0
-15 -2 -15 -4z"/>
<path d="M1708 1481 c3 -9 1 -12 -6 -7 -6 3 -13 2 -16 -3 -12 -20 12 -20 32 0
27 24 27 25 3 25 -12 0 -17 -5 -13 -15z"/>
<path d="M2186 1434 c-8 -20 -4 -25 11 -16 7 4 9 13 4 21 -6 10 -10 9 -15 -5z"/>
<path d="M2166 1341 c-3 -5 0 -11 7 -14 8 -3 14 1 14 9 0 16 -13 19 -21 5z"/>
<path d="M393 1315 c0 -8 4 -12 8 -9 4 2 10 -5 14 -16 3 -11 11 -20 16 -20 6
0 2 14 -8 30 -19 33 -30 38 -30 15z"/>
<path d="M481 1151 c-9 -6 -10 -11 -2 -15 6 -4 11 -2 11 5 0 8 5 7 18 -2 15
-13 16 -12 3 4 -7 9 -14 17 -15 17 0 0 -7 -4 -15 -9z"/>
<path d="M633 951 c0 -11 5 -18 9 -15 4 3 5 11 1 19 -7 21 -12 19 -10 -4z"/>
<path d="M845 680 c-3 -5 -1 -10 4 -10 6 0 11 5 11 10 0 6 -2 10 -4 10 -3 0
-8 -4 -11 -10z"/>
<path d="M1005 480 c3 -5 11 -10 16 -10 6 0 7 5 4 10 -3 6 -11 10 -16 10 -6 0
-7 -4 -4 -10z"/>
<path d="M1045 440 c-3 -5 -1 -10 4 -10 6 0 11 5 11 10 0 6 -2 10 -4 10 -3 0
-8 -4 -11 -10z"/>
<path d="M1090 371 c0 -6 4 -11 10 -11 5 0 7 -7 4 -15 -4 -8 -4 -15 -1 -15 13
0 14 30 1 40 -10 9 -14 9 -14 1z"/>
<path d="M1455 350 c-3 -5 -1 -10 4 -10 6 0 11 5 11 10 0 6 -2 10 -4 10 -3 0
-8 -4 -11 -10z"/>
<path d="M1266 62 c-3 -5 1 -9 9 -9 8 0 12 4 9 9 -3 4 -7 8 -9 8 -2 0 -6 -4
-9 -8z"/>
</g>
</svg>
